<?xml version="1.0" encoding="UTF-8" standalone="no"?>
<svg
   xmlns:dc="http://purl.org/dc/elements/1.1/"
   xmlns:cc="http://creativecommons.org/ns#"
   xmlns:rdf="http://www.w3.org/1999/02/22-rdf-syntax-ns#"
   xmlns:svg="http://www.w3.org/2000/svg"
   xmlns="http://www.w3.org/2000/svg"
   xmlns:sodipodi="http://sodipodi.sourceforge.net/DTD/sodipodi-0.dtd"
   xmlns:inkscape="http://www.inkscape.org/namespaces/inkscape"
   inkscape:version="1.0 (4035a4fb49, 2020-05-01)"
   sodipodi:docname="backspace.svg"
   id="svg6"
   version="1.1"
   viewBox="0 0 512 512"
   height="512"
   width="512">
  <metadata
     id="metadata12">
    <rdf:RDF>
      <cc:Work
         rdf:about="">
        <dc:format>image/svg+xml</dc:format>
        <dc:type
           rdf:resource="http://purl.org/dc/dcmitype/StillImage" />
      </cc:Work>
    </rdf:RDF>
  </metadata>
  <defs
     id="defs10" />
  <sodipodi:namedview
     inkscape:current-layer="svg6"
     inkscape:window-maximized="0"
     inkscape:window-y="77"
     inkscape:window-x="0"
     inkscape:cy="256"
     inkscape:cx="256"
     inkscape:zoom="1.6621094"
     showgrid="false"
     id="namedview8"
     inkscape:window-height="480"
     inkscape:window-width="732"
     inkscape:pageshadow="2"
     inkscape:pageopacity="0"
     guidetolerance="10"
     gridtolerance="10"
     objecttolerance="10"
     borderopacity="1"
     bordercolor="#666666"
     pagecolor="#ffffff" />
  <title
     id="title2">ionicons-v5-d</title>
  <path
     style="stroke-width:1;fill:#ffffff"
     id="path4"
     d="M 403.13,96 H 156.87 a 44.900001,44.9 0 0 0 -33.68,15.27 15.88,15.88 0 0 0 -1.91,2.7 L 32,247.75 a 16,16 0 0 0 0,16.5 l 89.15,133.57 a 16.24,16.24 0 0 0 2,2.88 44.89,44.89 0 0 0 33.7,15.3 H 403.13 A 44.92,44.92 0 0 0 448,371.13 V 140.87 A 44.92,44.92 0 0 0 403.13,96 Z M 348,311 a 16,16 0 1 1 -22.63,22.62 L 271.67,280 218,333.65 A 16.015969,16.015969 0 0 1 195.35,311 L 249,257.33 195.31,203.64 A 16.026586,16.026585 0 0 1 218,181 l 53.69,53.7 53.67,-53.7 A 16.008898,16.008898 0 0 1 348,203.64 l -53.7,53.69 z" />
</svg>
