<?xml version="1.0" encoding="UTF-8" standalone="no"?>
<svg
   xmlns:dc="http://purl.org/dc/elements/1.1/"
   xmlns:cc="http://creativecommons.org/ns#"
   xmlns:rdf="http://www.w3.org/1999/02/22-rdf-syntax-ns#"
   xmlns:svg="http://www.w3.org/2000/svg"
   xmlns="http://www.w3.org/2000/svg"
   xmlns:sodipodi="http://sodipodi.sourceforge.net/DTD/sodipodi-0.dtd"
   xmlns:inkscape="http://www.inkscape.org/namespaces/inkscape"
   inkscape:version="1.0 (4035a4fb49, 2020-05-01)"
   sodipodi:docname="chatbubble.svg"
   id="svg6"
   version="1.1"
   viewBox="0 0 512 512"
   height="512"
   width="512">
  <metadata
     id="metadata12">
    <rdf:RDF>
      <cc:Work
         rdf:about="">
        <dc:format>image/svg+xml</dc:format>
        <dc:type
           rdf:resource="http://purl.org/dc/dcmitype/StillImage" />
      </cc:Work>
    </rdf:RDF>
  </metadata>
  <defs
     id="defs10" />
  <sodipodi:namedview
     inkscape:current-layer="svg6"
     inkscape:window-maximized="0"
     inkscape:window-y="77"
     inkscape:window-x="0"
     inkscape:cy="256"
     inkscape:cx="256"
     inkscape:zoom="1.6621094"
     showgrid="false"
     id="namedview8"
     inkscape:window-height="480"
     inkscape:window-width="732"
     inkscape:pageshadow="2"
     inkscape:pageopacity="0"
     guidetolerance="10"
     gridtolerance="10"
     objecttolerance="10"
     borderopacity="1"
     bordercolor="#666666"
     pagecolor="#ffffff" />
  <title
     id="title2">ionicons-v5-s</title>
  <path
     style="stroke-width:0.999999;fill:#ffffff"
     id="path4"
     d="m 76.829997,480 a 25.689999,25.69 0 0 1 -25.569998,-25.74 29.129999,29.13 0 0 1 1.2,-7.63 l 18.42,-66.63 c 0.77,-2.46 -0.1,-4.94 -1.23,-6.9 l -0.22,-0.4 c -0.08,-0.13 -0.46,-0.66 -0.73,-1.05 -0.27,-0.39 -0.58,-0.81 -0.86,-1.22 l -0.19,-0.27 A 215.65999,215.66 0 0 1 32,251.37 C 31.82,193.78 54.349999,139.37 95.459997,98.09 138,55.47 194.9,32 255.81999,32 a 227.39999,227.4 0 0 1 142.18,49.84 c 39.45,31.75 66.87,76 77.20999,124.68 a 213.5,213.5 0 0 1 4.78002,45 c 0,58.93 -22.64001,114.28 -63.76001,155.87 -41.48,42 -97.18,65.06 -156.83,65.06 -21,0 -47.87,-5.36 -60.76999,-9 -15.52,-4.34 -30.23001,-10 -31.85,-10.6 a 15.12,15.12 0 0 0 -5.37001,-1 A 14.749999,14.75 0 0 0 155.61,453 l -0.85,0.33 -67.480002,24.38 A 29.439999,29.44 0 0 1 76.829997,480 Z m -1.999998,-31.8 z m 12.65,-68.2 z" />
</svg>
