<?xml version="1.0" encoding="UTF-8" standalone="no"?>
<svg
   xmlns:dc="http://purl.org/dc/elements/1.1/"
   xmlns:cc="http://creativecommons.org/ns#"
   xmlns:rdf="http://www.w3.org/1999/02/22-rdf-syntax-ns#"
   xmlns:svg="http://www.w3.org/2000/svg"
   xmlns="http://www.w3.org/2000/svg"
   xmlns:sodipodi="http://sodipodi.sourceforge.net/DTD/sodipodi-0.dtd"
   xmlns:inkscape="http://www.inkscape.org/namespaces/inkscape"
   inkscape:version="1.0 (4035a4fb49, 2020-05-01)"
   sodipodi:docname="flash-off.svg"
   id="svg10"
   version="1.1"
   viewBox="0 0 512 512"
   height="512"
   width="512">
  <metadata
     id="metadata16">
    <rdf:RDF>
      <cc:Work
         rdf:about="">
        <dc:format>image/svg+xml</dc:format>
        <dc:type
           rdf:resource="http://purl.org/dc/dcmitype/StillImage" />
      </cc:Work>
    </rdf:RDF>
  </metadata>
  <defs
     id="defs14" />
  <sodipodi:namedview
     inkscape:current-layer="svg10"
     inkscape:window-maximized="0"
     inkscape:window-y="77"
     inkscape:window-x="0"
     inkscape:cy="256"
     inkscape:cx="172.67215"
     inkscape:zoom="1.6621094"
     showgrid="false"
     id="namedview12"
     inkscape:window-height="480"
     inkscape:window-width="712"
     inkscape:pageshadow="2"
     inkscape:pageopacity="0"
     guidetolerance="10"
     gridtolerance="10"
     objecttolerance="10"
     borderopacity="1"
     bordercolor="#666666"
     pagecolor="#ffffff" />
  <title
     id="title2">ionicons-v5-m</title>
  <path
     style="fill:#ffffff"
     id="path4"
     d="M432,448a15.92,15.92,0,0,1-11.31-4.69l-352-352A16,16,0,0,1,91.31,68.69l352,352A16,16,0,0,1,432,448Z" />
  <path
     style="fill:#ffffff"
     id="path6"
     d="M431.5,204A16,16,0,0,0,416,192H307.19L335.4,37.63c.05-.3.1-.59.13-.89A18.45,18.45,0,0,0,302.73,23L210.15,137.46a4,4,0,0,0,.29,5.35l151,151a4,4,0,0,0,5.94-.31l60.8-75.16A16.37,16.37,0,0,0,431.5,204Z" />
  <path
     style="fill:#ffffff"
     id="path8"
     d="M301.57,369.19l-151-151a4,4,0,0,0-5.93.31L83.8,293.64A16.37,16.37,0,0,0,80.5,308,16,16,0,0,0,96,320H204.83L176.74,474.36l0,.11A18.37,18.37,0,0,0,209.24,489l92.61-114.46A4,4,0,0,0,301.57,369.19Z" />
</svg>
