<?xml version="1.0" encoding="UTF-8" standalone="no"?>
<svg
   xmlns:dc="http://purl.org/dc/elements/1.1/"
   xmlns:cc="http://creativecommons.org/ns#"
   xmlns:rdf="http://www.w3.org/1999/02/22-rdf-syntax-ns#"
   xmlns:svg="http://www.w3.org/2000/svg"
   xmlns="http://www.w3.org/2000/svg"
   xmlns:sodipodi="http://sodipodi.sourceforge.net/DTD/sodipodi-0.dtd"
   xmlns:inkscape="http://www.inkscape.org/namespaces/inkscape"
   width="512"
   height="512"
   viewBox="0 0 512 512"
   version="1.1"
   id="svg8"
   sodipodi:docname="log-out.svg"
   inkscape:version="1.0 (4035a4fb49, 2020-05-01)">
  <metadata
     id="metadata14">
    <rdf:RDF>
      <cc:Work
         rdf:about="">
        <dc:format>image/svg+xml</dc:format>
        <dc:type
           rdf:resource="http://purl.org/dc/dcmitype/StillImage" />
      </cc:Work>
    </rdf:RDF>
  </metadata>
  <defs
     id="defs12" />
  <sodipodi:namedview
     inkscape:document-rotation="0"
     pagecolor="#ffffff"
     bordercolor="#666666"
     borderopacity="1"
     objecttolerance="10"
     gridtolerance="10"
     guidetolerance="10"
     inkscape:pageopacity="0"
     inkscape:pageshadow="2"
     inkscape:window-width="1162"
     inkscape:window-height="599"
     id="namedview10"
     showgrid="false"
     inkscape:zoom="1.6621094"
     inkscape:cx="298.38375"
     inkscape:cy="257.88754"
     inkscape:window-x="0"
     inkscape:window-y="77"
     inkscape:window-maximized="0"
     inkscape:current-layer="svg8" />
  <title
     id="title2">ionicons-v5-o</title>
  <path
     d="M160,256a16,16,0,0,1,16-16H320V136c0-32-33.79-56-64-56H104a56.06,56.06,0,0,0-56,56V376a56.06,56.06,0,0,0,56,56H264a56.06,56.06,0,0,0,56-56V272H176A16,16,0,0,1,160,256Z"
     id="path4"
     style="fill:#ffffff" />
  <path
     style="fill:#ffffff"
     d="M459.31,244.69l-80-80a16,16,0,0,0-22.62,22.62L409.37,240H320v32h89.37l-52.68,52.69a16,16,0,1,0,22.62,22.62l80-80a16,16,0,0,0,0-22.62Z"
     id="path6" />
</svg>
